<svg xmlns="http://www.w3.org/2000/svg" xmlns:xlink="http://www.w3.org/1999/xlink" width="320" height="320">
    <defs>
        <linearGradient id="linear-gradient" x1=".524" y1=".926" x2="1.185" y2=".247" gradientUnits="objectBoundingBox">
            <stop offset="0" stop-color="#39b54a"/>
            <stop offset="1" stop-color="#8dc63f"/>
        </linearGradient>
        <linearGradient id="linear-gradient-2" x1="23.21" y1="-21.228" x2="-3.31" y2="4.139" gradientUnits="objectBoundingBox">
            <stop offset="0" stop-color="#449fb9"/>
            <stop offset="1" stop-color="#449fb9" stop-opacity="0"/>
        </linearGradient>
        <linearGradient id="linear-gradient-3" x1="20.668" y1="-18.662" x2="-4.901" y2="5.624" xlink:href="#linear-gradient-2"/>
        <linearGradient id="linear-gradient-4" x1="18.302" y1="-16.306" x2="-6.381" y2="6.988" xlink:href="#linear-gradient-2"/>
        <linearGradient id="linear-gradient-5" x1="16.096" y1="-14.134" x2="-7.763" y2="8.244" xlink:href="#linear-gradient-2"/>
        <linearGradient id="linear-gradient-6" x1="14.032" y1="-12.127" x2="-9.054" y2="9.406" xlink:href="#linear-gradient-2"/>
        <linearGradient id="linear-gradient-7" x1="12.098" y1="-10.266" x2="-10.266" y2="10.484" xlink:href="#linear-gradient-2"/>
        <linearGradient id="linear-gradient-8" x1="10.28" y1="-8.536" x2="-11.402" y2="11.487" xlink:href="#linear-gradient-2"/>
        <linearGradient id="linear-gradient-9" x1="8.571" y1="-6.923" x2="-12.474" y2="12.42" xlink:href="#linear-gradient-2"/>
        <linearGradient id="linear-gradient-10" x1="6.959" y1="-5.416" x2="-13.482" y2="13.292" xlink:href="#linear-gradient-2"/>
        <linearGradient id="linear-gradient-11" x1="5.437" y1="-4.004" x2="-14.434" y2="14.109" xlink:href="#linear-gradient-2"/>
        <linearGradient id="linear-gradient-12" x1="3.997" y1="-2.68" x2="-15.337" y2="14.876" xlink:href="#linear-gradient-2"/>
        <linearGradient id="linear-gradient-13" x1="2.634" y1="-1.434" x2="-16.19" y2="15.597" xlink:href="#linear-gradient-2"/>
        <linearGradient id="linear-gradient-14" x1="1.972" y1="-.783" x2="-24.972" y2="22.651" xlink:href="#linear-gradient-2"/>
        <linearGradient id="linear-gradient-15" x1="56.833" y1="-56.409" x2="2.947" y2="-1.965" xlink:href="#linear-gradient-2"/>
        <linearGradient id="linear-gradient-16" x1="26.21" y1="-25.289" x2=".023" y2=".985" xlink:href="#linear-gradient-2"/>
        <linearGradient id="linear-gradient-17" x1="23.292" y1="-22.178" x2="-1.776" y2="2.772" xlink:href="#linear-gradient-2"/>
        <linearGradient id="linear-gradient-18" x1="20.613" y1="-19.364" x2="-3.428" y2="4.387" xlink:href="#linear-gradient-2"/>
        <linearGradient id="linear-gradient-19" x1="18.145" y1="-16.806" x2="-4.95" y2="5.853" xlink:href="#linear-gradient-2"/>
        <linearGradient id="linear-gradient-20" x1="15.865" y1="-14.477" x2="-6.357" y2="7.193" xlink:href="#linear-gradient-2"/>
        <linearGradient id="linear-gradient-21" x1="13.75" y1="-12.341" x2="-7.662" y2="8.418" xlink:href="#linear-gradient-2"/>
        <linearGradient id="linear-gradient-22" x1="11.783" y1="-10.378" x2="-8.873" y2="9.546" xlink:href="#linear-gradient-2"/>
        <linearGradient id="linear-gradient-23" x1="9.951" y1="-8.566" x2="-10.004" y2="10.586" xlink:href="#linear-gradient-2"/>
        <linearGradient id="linear-gradient-24" x1="8.24" y1="-6.889" x2="-11.059" y2="11.548" xlink:href="#linear-gradient-2"/>
        <linearGradient id="linear-gradient-25" x1="6.637" y1="-5.334" x2="-12.048" y2="12.442" xlink:href="#linear-gradient-2"/>
        <linearGradient id="linear-gradient-26" x1="5.134" y1="-3.885" x2="-12.976" y2="13.272" xlink:href="#linear-gradient-2"/>
        <linearGradient id="linear-gradient-27" x1="3.719" y1="-2.535" x2="-13.846" y2="14.048" xlink:href="#linear-gradient-2"/>
        <linearGradient id="linear-gradient-28" x1="2.388" y1="-1.272" x2="-14.668" y2="14.774" xlink:href="#linear-gradient-2"/>
        <linearGradient id="linear-gradient-29" x1="1.624" y1="-.518" x2="-22.198" y2="21.135" xlink:href="#linear-gradient-2"/>
        <linearGradient id="linear-gradient-30" x1=".142" y1=".848" x2=".932" y2=".09" gradientUnits="objectBoundingBox">
            <stop offset="0" stop-color="#f75468"/>
            <stop offset="1" stop-color="#ff774d"/>
        </linearGradient>
        <clipPath id="clip-path">
            <path id="Rectangle_10500" data-name="Rectangle 10500" transform="translate(6153.367 2886.257)" style="fill:none" d="M0 0h320v320H0z"/>
        </clipPath>
        <style>
            .cls-43{fill:none}.cls-3{fill:#449fb9}.cls-8{fill:#231f20;opacity:.2}.cls-12{fill:#fff}.cls-43{stroke:#f75468;stroke-linecap:round;stroke-miterlimit:10;stroke-width:1.135px}
        </style>
    </defs>
    <g id="img-contact-us" transform="translate(-6153.367 -2886.257)" style="clip-path:url(#clip-path)">
        <g id="Group_8268" data-name="Group 8268">
            <g id="Group_8259" data-name="Group 8259" transform="rotate(7 6078.12 3234.37)">
                <path id="Path_26051" data-name="Path 26051" class="cls-3" d="m6344.046 2990.753 75.953-21.3-55.641 35.492z"/>
                <path id="Path_26052" data-name="Path 26052" d="m6364.358 3004.944 2.261 21.422 53.38-56.914z" style="fill:#0c627a"/>
                <path id="Path_26053" data-name="Path 26053" class="cls-3" d="m6420 2969.452-47.636 41.342 20.467 16.941z"/>
                <path id="Path_26054" data-name="Path 26054" d="m6372.363 3010.794-5.745 15.572 10.7-11.407z" style="fill:#248196"/>
            </g>
            <g id="Group_8263" data-name="Group 8263" transform="translate(20 30)">
                <g id="Group_8260" data-name="Group 8260">
                    <path id="Path_26055" data-name="Path 26055" d="M6311.566 2966.476v51.058a5.683 5.683 0 0 1-5.673 5.673h-79.423a5.684 5.684 0 0 1-5.673-5.673v-51.058a5.47 5.47 0 0 1 .187-1.441 5.671 5.671 0 0 1 5.486-4.232h79.423a5.674 5.674 0 0 1 5.486 4.232 5.47 5.47 0 0 1 .187 1.441z" style="fill:#e47540"/>
                    <path id="Path_26056" data-name="Path 26056" d="M6309.58 3021.84a5.647 5.647 0 0 1-3.687 1.367h-79.423a5.6 5.6 0 0 1-3.688-1.367l43.4-41.181z" style="fill:#f49f4b"/>
                    <path id="Path_26057" data-name="Path 26057" class="cls-8" d="M6311.566 2966.476v2.235l-18.579 15.039-3.75 3.035-8.958 7.25-10.529 8.527a5.67 5.67 0 0 1-7.137 0l-10.529-8.527-31.287-25.324v-2.235a5.47 5.47 0 0 1 .187-1.441 5.671 5.671 0 0 1 5.486-4.232h79.423a5.674 5.674 0 0 1 5.486 4.232 5.47 5.47 0 0 1 .187 1.441z"/>
                    <path id="Path_26058" data-name="Path 26058" d="m6311.379 2965.035-21.529 15.55-3.7 2.672-9.786 7.063-6.865 4.958a5.664 5.664 0 0 1-6.643 0l-6.858-4.953-35.015-25.29a5.671 5.671 0 0 1 5.486-4.232h79.423a5.674 5.674 0 0 1 5.487 4.232z" style="fill:#ffb35c"/>
                </g>
                <path id="Path_26059" data-name="Path 26059" class="cls-8" d="M6311.566 2966.476v21.285a17.834 17.834 0 0 1-22.329-.976 18.343 18.343 0 0 1-3.086-3.528 17.831 17.831 0 0 1 2.224-22.454h17.518a5.674 5.674 0 0 1 5.486 4.232 5.47 5.47 0 0 1 .187 1.441z"/>
                <g id="Group_8262" data-name="Group 8262">
                    <circle id="Ellipse_16" data-name="Ellipse 16" cx="17.019" cy="17.019" r="17.019" transform="translate(6284.801 2952.643)" style="fill:url(#linear-gradient)"/>
                    <g id="Group_8261" data-name="Group 8261" style="opacity:.8">
                        <path id="Path_26060" data-name="Path 26060" class="cls-12" d="M6299.055 2976.21a1.694 1.694 0 0 1-1.2-.5l-4.161-4.161a1.7 1.7 0 0 1 2.406-2.407l2.958 2.958 8.489-8.488a1.7 1.7 0 0 1 2.406 2.406l-9.692 9.692a1.691 1.691 0 0 1-1.206.5z"/>
                    </g>
                </g>
            </g>
            <g id="Group_8264" data-name="Group 8264" transform="rotate(7 6078.12 3234.37)">
                <path id="Path_26064" data-name="Path 26064" d="m6239.169 3141.74 5.4-4.47a.369.369 0 0 1 .47.568h-.005l-5.467 4.381a.312.312 0 0 1-.394-.483z" style="fill:url(#linear-gradient-2)"/>
                <path id="Path_26065" data-name="Path 26065" d="m6249.961 3132.8 5.4-4.469a.482.482 0 1 1 .615.742l-.006.005-5.467 4.381a.425.425 0 0 1-.537-.659z" style="fill:url(#linear-gradient-3)"/>
                <path id="Path_26066" data-name="Path 26066" d="m6260.752 3123.863 5.4-4.469a.6.6 0 1 1 .76.917l-.008.006-5.467 4.381a.539.539 0 0 1-.681-.835z" style="fill:url(#linear-gradient-4)"/>
                <path id="Path_26067" data-name="Path 26067" d="m6271.544 3114.924 5.4-4.469a.709.709 0 0 1 .905 1.092l-.009.007-5.467 4.382a.653.653 0 0 1-.824-1.012z" style="fill:url(#linear-gradient-5)"/>
                <path id="Path_26068" data-name="Path 26068" d="m6282.335 3105.986 5.4-4.469a.822.822 0 1 1 1.049 1.267l-.01.008-5.468 4.381a.765.765 0 0 1-.967-1.187z" style="fill:url(#linear-gradient-6)"/>
                <path id="Path_26069" data-name="Path 26069" d="m6293.127 3097.047 5.4-4.469a.936.936 0 1 1 1.195 1.442l-.012.01-5.467 4.381a.879.879 0 0 1-1.111-1.364z" style="fill:url(#linear-gradient-7)"/>
                <path id="Path_26070" data-name="Path 26070" d="m6303.918 3088.109 5.4-4.469a1.049 1.049 0 1 1 1.339 1.616l-.013.011-5.468 4.381a.993.993 0 0 1-1.254-1.539z" style="fill:url(#linear-gradient-8)"/>
                <path id="Path_26071" data-name="Path 26071" d="m6314.709 3079.17 5.4-4.469a1.163 1.163 0 1 1 1.484 1.792l-.014.012-5.468 4.381a1.107 1.107 0 0 1-1.4-1.716z" style="fill:url(#linear-gradient-9)"/>
                <path id="Path_26072" data-name="Path 26072" d="m6325.5 3070.232 5.4-4.469a1.277 1.277 0 1 1 1.629 1.966l-.016.013-5.468 4.382a1.22 1.22 0 0 1-1.541-1.892z" style="fill:url(#linear-gradient-10)"/>
                <path id="Path_26073" data-name="Path 26073" d="m6336.292 3061.293 5.4-4.469a1.391 1.391 0 0 1 1.774 2.142l-.017.014-5.468 4.381a1.334 1.334 0 0 1-1.685-2.068z" style="fill:url(#linear-gradient-11)"/>
                <path id="Path_26074" data-name="Path 26074" d="m6347.084 3052.355 5.4-4.469a1.5 1.5 0 1 1 1.918 2.316l-.018.015-5.468 4.382a1.447 1.447 0 0 1-1.828-2.244z" style="fill:url(#linear-gradient-12)"/>
                <path id="Path_26075" data-name="Path 26075" d="m6357.875 3043.416 5.4-4.469a1.618 1.618 0 0 1 2.064 2.492l-.02.016-5.468 4.381a1.561 1.561 0 0 1-1.972-2.42z" style="fill:url(#linear-gradient-13)"/>
                <path id="Path_26076" data-name="Path 26076" d="m6368.667 3034.478 2.621-2.172a1.7 1.7 0 0 1 2.172 2.622l-.022.017-2.656 2.129a1.674 1.674 0 0 1-2.115-2.6z" style="fill:url(#linear-gradient-14)"/>
            </g>
            <g id="Group_8265" data-name="Group 8265" transform="rotate(7 6078.12 3234.37)">
                <path id="Path_26077" data-name="Path 26077" d="m6206.734 3132.079 2.6-2.2a.029.029 0 0 1 .042 0 .029.029 0 0 1 0 .043z" style="fill:url(#linear-gradient-15)"/>
                <path id="Path_26078" data-name="Path 26078" d="m6214.5 3125.5 5.166-4.377a.152.152 0 1 1 .2.232l-5.244 4.284a.092.092 0 0 1-.117-.141z" style="fill:url(#linear-gradient-16)"/>
                <path id="Path_26079" data-name="Path 26079" d="m6224.831 3116.746 5.166-4.377a.273.273 0 0 1 .354.417l-5.244 4.284a.213.213 0 0 1-.272-.327z" style="fill:url(#linear-gradient-17)"/>
                <path id="Path_26080" data-name="Path 26080" d="m6235.163 3107.991 5.167-4.377a.4.4 0 1 1 .511.6h-.006l-5.244 4.284a.334.334 0 0 1-.428-.514z" style="fill:url(#linear-gradient-18)"/>
                <path id="Path_26081" data-name="Path 26081" d="m6245.5 3099.236 5.167-4.377a.517.517 0 1 1 .668.788l-.008.006-5.244 4.284a.456.456 0 0 1-.583-.7z" style="fill:url(#linear-gradient-19)"/>
                <path id="Path_26082" data-name="Path 26082" d="m6255.829 3090.481 5.171-4.381a.638.638 0 1 1 .826.974l-.009.007-5.244 4.284a.578.578 0 0 1-.739-.888z" style="fill:url(#linear-gradient-20)"/>
                <path id="Path_26083" data-name="Path 26083" d="m6266.162 3081.726 5.166-4.377a.76.76 0 0 1 .983 1.159l-.011.009-5.244 4.284a.7.7 0 0 1-.894-1.075z" style="fill:url(#linear-gradient-21)"/>
                <path id="Path_26084" data-name="Path 26084" d="m6276.494 3072.971 5.167-4.377a.881.881 0 1 1 1.139 1.345l-.012.01-5.244 4.284a.821.821 0 0 1-1.05-1.262z" style="fill:url(#linear-gradient-22)"/>
                <path id="Path_26085" data-name="Path 26085" d="m6286.827 3064.216 5.167-4.377a1 1 0 1 1 1.3 1.53l-.014.012-5.244 4.284a.942.942 0 0 1-1.205-1.449z" style="fill:url(#linear-gradient-23)"/>
                <path id="Path_26086" data-name="Path 26086" d="m6297.16 3055.461 5.166-4.377a1.124 1.124 0 1 1 1.454 1.715l-.015.013-5.244 4.284a1.064 1.064 0 0 1-1.361-1.635z" style="fill:url(#linear-gradient-24)"/>
                <path id="Path_26087" data-name="Path 26087" d="m6307.493 3046.706 5.166-4.377a1.246 1.246 0 0 1 1.611 1.9l-.017.014-5.244 4.284a1.185 1.185 0 0 1-1.516-1.822z" style="fill:url(#linear-gradient-25)"/>
                <path id="Path_26088" data-name="Path 26088" d="m6317.826 3037.951 5.166-4.377a1.367 1.367 0 1 1 1.768 2.086l-.019.016-5.244 4.284a1.307 1.307 0 0 1-1.671-2.009z" style="fill:url(#linear-gradient-26)"/>
                <path id="Path_26089" data-name="Path 26089" d="m6328.158 3029.2 5.167-4.377a1.489 1.489 0 0 1 1.925 2.272l-.021.017-5.244 4.284a1.428 1.428 0 0 1-1.827-2.2z" style="fill:url(#linear-gradient-27)"/>
                <path id="Path_26090" data-name="Path 26090" d="m6338.491 3020.441 5.166-4.377a1.611 1.611 0 1 1 2.083 2.457l-.022.019-5.244 4.284a1.55 1.55 0 0 1-1.983-2.383z" style="fill:url(#linear-gradient-28)"/>
                <path id="Path_26091" data-name="Path 26091" d="m6348.824 3011.686 2.6-2.2a1.7 1.7 0 0 1 2.2 2.6l-.023.019-2.636 2.154a1.672 1.672 0 0 1-2.138-2.57z" style="fill:url(#linear-gradient-29)"/>
            </g>
            <g id="Group_8267" data-name="Group 8267" transform="translate(30 30)">
                <circle id="Ellipse_17" data-name="Ellipse 17" cx="17.019" cy="17.019" r="17.019" transform="translate(6332.975 2929.094)" style="fill:url(#linear-gradient-30)"/>
                <g id="Group_8266" data-name="Group 8266" style="opacity:.6">
                    <path id="Path_26092" data-name="Path 26092" class="cls-12" d="m6356.705 2951.586-1.25-2.2v-5.279a5.442 5.442 0 0 0-3.667-5.152 1.9 1.9 0 0 0 .037-.37 1.833 1.833 0 1 0-3.627.374 5.621 5.621 0 0 0-3.666 5.292v5.135l-1.249 2.2a.732.732 0 0 0 .638 1.095h12.146a.733.733 0 0 0 .638-1.095zm-7.813-13a1.1 1.1 0 1 1 2.2 0 1.066 1.066 0 0 1-.018.177 5.488 5.488 0 0 0-1.467-.1 5.314 5.314 0 0 0-.7.1 1.085 1.085 0 0 1-.015-.179z"/>
                    <path id="Path_26093" data-name="Path 26093" class="cls-12" d="M6349.993 2955.476a2.2 2.2 0 0 0 2.2-2.2h-4.4a2.2 2.2 0 0 0 2.2 2.2z"/>
                </g>
                <path id="Path_26094" data-name="Path 26094" class="cls-43" d="M6369.032 2951.771a19.84 19.84 0 1 0-11.309 12.638"/>
                <path id="Path_26095" data-name="Path 26095" class="cls-43" d="M6365.7 2958.264a19.946 19.946 0 0 0 1.809-2.787"/>
                <path id="Path_26096" data-name="Path 26096" class="cls-43" d="M6360.448 2963a19.877 19.877 0 0 0 2.871-2.163"/>
            </g>
            <path id="Rectangle_10502" data-name="Rectangle 10502" class="cls-3" transform="translate(6168.367 2901.257)" d="M0 0h20v20H0z"/>
            <path id="Rectangle_10503" data-name="Rectangle 10503" class="cls-3" transform="translate(6178.367 2978.257)" d="M0 0h10v10H0z"/>
            <path id="Rectangle_10504" data-name="Rectangle 10504" class="cls-3" transform="translate(6207.367 2927.257)" d="M0 0h12v12H0z"/>
            <path id="Rectangle_10517" data-name="Rectangle 10517" class="cls-3" transform="translate(6280.367 2955.257)" d="M0 0h8v8H0z"/>
            <path id="Rectangle_10505" data-name="Rectangle 10505" class="cls-3" transform="translate(6386.367 2934.257)" d="M0 0h4v4H0z"/>
            <path id="Rectangle_10516" data-name="Rectangle 10516" class="cls-3" transform="translate(6225.367 2964.257)" d="M0 0h6v6H0z"/>
            <path id="Rectangle_10521" data-name="Rectangle 10521" class="cls-3" transform="translate(6291.367 2921.257)" d="M0 0h6v6H0z"/>
            <path id="Rectangle_10506" data-name="Rectangle 10506" class="cls-3" transform="translate(6219.367 3027.257)" d="M0 0h6v6H0z"/>
            <path id="Rectangle_10522" data-name="Rectangle 10522" class="cls-3" transform="translate(6404.367 2914.257)" d="M0 0h6v6H0z"/>
            <path id="Rectangle_10507" data-name="Rectangle 10507" class="cls-3" transform="translate(6243.367 2937.257)" d="M0 0h4v4H0z"/>
            <path id="Rectangle_10518" data-name="Rectangle 10518" class="cls-3" transform="translate(6259.367 2975.257)" d="M0 0h4v4H0z"/>
            <path id="Rectangle_10508" data-name="Rectangle 10508" class="cls-3" transform="translate(6451.367 2931.257)" d="M0 0h4v4H0z"/>
            <path id="Rectangle_10509" data-name="Rectangle 10509" class="cls-3" transform="translate(6331.367 2907.257)" d="M0 0h4v4H0z"/>
            <path id="Rectangle_10510" data-name="Rectangle 10510" class="cls-3" transform="translate(6178.367 3081.257)" d="M0 0h4v4H0z"/>
            <path id="Rectangle_10511" data-name="Rectangle 10511" class="cls-3" transform="translate(6421.367 2942.257)" d="M0 0h4v4H0z"/>
            <path id="Rectangle_10512" data-name="Rectangle 10512" class="cls-3" transform="translate(6341.367 2975.257)" d="M0 0h4v4H0z"/>
            <path id="Rectangle_10513" data-name="Rectangle 10513" class="cls-3" transform="translate(6226.367 3063.257)" d="M0 0h4v4H0z"/>
            <path id="Rectangle_10519" data-name="Rectangle 10519" class="cls-3" transform="translate(6221.367 3137.257)" d="M0 0h4v4H0z"/>
            <path id="Rectangle_10514" data-name="Rectangle 10514" class="cls-3" transform="translate(6178.367 3018.257)" d="M0 0h4v4H0z"/>
            <path id="Rectangle_10515" data-name="Rectangle 10515" class="cls-3" transform="translate(6191.367 3116.257)" d="M0 0h4v4H0z"/>
            <path id="Rectangle_10520" data-name="Rectangle 10520" class="cls-3" transform="translate(6174.367 3158.257)" d="M0 0h4v4H0z"/>
            <path id="Rectangle_10503-2" data-name="Rectangle 10503" class="cls-3" d="M2 2v4h4V2H2M0 0h8v8H0z" transform="translate(6247.367 3083.257)"/>
            <path id="Rectangle_10512-2" data-name="Rectangle 10512" class="cls-3" d="M2 2v8h8V2H2M0 0h12v12H0z" transform="translate(6185.367 2949.257)"/>
            <path id="Rectangle_10510-2" data-name="Rectangle 10510" class="cls-3" d="M1 1v2h2V1H1M0 0h4v4H0z" transform="translate(6253.367 2915.257)"/>
            <path id="Rectangle_10510-3" data-name="Rectangle 10510" class="cls-3" d="M1.5 1.5v3h3v-3h-3M0 0h6v6H0z" transform="translate(6317.367 2949.257)"/>
            <path id="Rectangle_10514-2" data-name="Rectangle 10514" class="cls-3" d="M1 1v2h2V1H1M0 0h4v4H0z" transform="translate(6187.367 3052.257)"/>
            <path id="Rectangle_10511-2" data-name="Rectangle 10511" class="cls-3" d="M1 1v2h2V1H1M0 0h4v4H0z" transform="translate(6203.367 3005.257)"/>
            <path id="Rectangle_10511-3" data-name="Rectangle 10511" class="cls-3" d="M1 1v2h2V1H1M0 0h4v4H0z" transform="translate(6351.367 2935.257)"/>
            <path id="Rectangle_10511-4" data-name="Rectangle 10511" class="cls-3" d="M1 1v2h2V1H1M0 0h4v4H0z" transform="translate(6364.367 2913.257)"/>
            <path id="Rectangle_10516-2" data-name="Rectangle 10516" class="cls-3" d="M1 1v2h2V1H1M0 0h4v4H0z" transform="translate(6206.367 3088.257)"/>
        </g>
    </g>
</svg>
